<svg width="141" height="160" viewBox="0 0 141 160" fill="none" xmlns="http://www.w3.org/2000/svg">
<path d="M118.303 49.6995C118.324 46.7314 118.022 43.8265 117.505 41.0058C108.271 53.7622 93.0839 62.1191 75.8687 62.1191H58.8907C45.3428 62.1191 33.3051 68.3289 25.5172 77.991C27.1784 80.3275 29.0552 82.5378 31.0831 84.5586C37.2314 76.0123 47.3923 70.4129 58.8691 70.4129H75.8471C92.372 70.4129 107.344 63.7821 118.13 53.1096L118.135 53.0498C118.22 51.9338 118.303 50.837 118.303 49.6995Z" fill="#42A5F5"/>
<path d="M21.0732 70.3077C30.4143 60.2246 43.8759 53.8464 58.8907 53.8464H75.8687C92.8035 53.8464 107.387 44.1423 114.204 30.1228C112.737 26.7758 110.86 23.6394 108.703 20.7134C104.906 34.9644 91.6385 45.5526 75.8687 45.5526H58.8907C43.0345 45.5526 28.6453 51.6782 17.9667 61.5929C18.7433 64.6241 19.7788 67.529 21.0732 70.3077Z" fill="#42A5F5"/>
<path d="M75.8687 28.944L58.8907 28.9861C43.5307 28.9861 29.2494 33.4698 17.2548 41.111C16.7586 43.9107 16.435 46.7525 16.435 49.6995C16.435 50.1115 16.4636 50.5165 16.492 50.9185C16.5129 51.2149 16.5337 51.5097 16.5429 51.8045C28.1707 42.7319 42.8619 37.2588 58.8907 37.2588H75.8687C89.8048 37.2588 101.152 26.2706 101.325 12.6933C98.7361 10.4198 95.8884 8.39903 92.8466 6.67291V12.3775C92.8466 21.5133 85.2314 28.944 75.8687 28.944Z" fill="#42A5F5"/>
<path d="M20.8143 29.6176C32.2912 23.9551 45.1918 20.6923 58.8907 20.6923H75.8687C80.55 20.6923 84.3684 16.9665 84.3684 12.3986V2.88388C79.0399 1.05251 73.3446 0 67.3905 0C46.5941 0 28.7316 12.1881 20.8143 29.6176Z" fill="#42A5F5"/>
<path d="M115.412 66.2029C104.237 74.0335 90.6246 78.6856 75.8902 78.6856H58.9123C50.0026 78.6856 42.1716 83.1693 37.6197 89.9475C46.0116 95.8626 56.2804 99.399 67.412 99.399C89.6107 99.399 108.422 85.5269 115.412 66.2029Z" fill="#42A5F5"/>
<path fill-rule="evenodd" clip-rule="evenodd" d="M17.0374 124.032C17.0374 125.117 16.6198 126.285 15.7846 127.537H18.9165C19.7517 125.924 20.1692 124.491 20.1692 123.239C20.1692 121.348 19.5289 119.79 18.2484 118.566C16.9678 117.342 15.1165 116.73 12.6945 116.73C10.3004 116.73 8.26814 117.453 6.5978 118.9C4.95531 120.318 4.13407 122.057 4.13407 124.115C4.13407 125.59 5.08059 128.191 6.97363 131.918C2.32454 134.366 0 137.468 0 141.223C0 143.254 0.695971 145.034 2.08791 146.564C3.47985 148.066 5.38681 148.817 7.80879 148.817C10.2586 148.817 12.3744 148.052 14.156 146.522C15.9656 144.965 16.8703 142.948 16.8703 140.472C16.8703 138.497 16.3414 136.452 15.2835 134.338C14.8938 133.559 13.9751 131.821 12.5275 129.123C11.0799 126.424 10.356 124.56 10.356 123.531C10.356 122.474 10.6623 121.709 11.2747 121.236C11.8872 120.736 12.6945 120.485 13.6967 120.485C14.6989 120.485 15.5062 120.805 16.1187 121.445C16.7311 122.085 17.0374 122.947 17.0374 124.032ZM7.55824 145.02C6.50037 145.02 5.59561 144.617 4.84396 143.81C4.09231 143.059 3.71648 142.058 3.71648 140.806C3.71648 138.358 5.27546 136.327 8.39341 134.714C8.5326 134.964 8.75531 135.395 9.06154 136.007C9.36777 136.592 9.57656 136.995 9.68792 137.217C10.5509 138.831 10.9824 140.194 10.9824 141.307C10.9824 142.531 10.6762 143.462 10.0637 144.102C9.47913 144.714 8.64396 145.02 7.55824 145.02Z" fill="#42A5F5"/>
<path fill-rule="evenodd" clip-rule="evenodd" d="M27.8645 129.832C27.5583 128.914 26.5004 128.455 24.6909 128.455C23.6887 128.455 22.8953 128.566 22.3107 128.789C21.6982 134.269 20.5011 144.673 18.7194 160H24.1898L25.526 148.525C26.4447 148.72 27.2938 148.817 28.0733 148.817C31.5253 148.817 34.3231 147.872 36.4667 145.98C38.6103 144.061 39.8352 141.279 40.1414 137.635C40.1693 137.301 40.1832 136.981 40.1832 136.675C40.1832 134.477 39.4594 132.558 38.0118 130.917C36.5641 129.276 34.8381 128.455 32.8337 128.455C30.8293 128.455 29.1729 128.914 27.8645 129.832ZM33.4601 133.712C34.0169 134.658 34.2953 135.743 34.2953 136.967C34.2953 139.498 33.7385 141.557 32.6249 143.143C31.7063 144.422 30.537 145.062 29.1172 145.062C28.3099 145.062 27.6279 144.853 27.0711 144.436C26.5143 144.019 26.2498 143.393 26.2777 142.558C26.3612 141.891 26.6813 139.498 27.2381 135.381C28.0733 133.323 29.2843 132.294 30.8711 132.294C32.0403 132.294 32.9033 132.767 33.4601 133.712Z" fill="#42A5F5"/>
<path fill-rule="evenodd" clip-rule="evenodd" d="M59.5297 130.958C57.8315 129.317 55.7018 128.497 53.1406 128.497C49.8 128.497 47.0439 129.54 44.8725 131.626C42.7289 133.685 41.6571 136.466 41.6571 139.971C41.6571 142.475 42.5201 144.575 44.2461 146.272C46 147.969 48.3663 148.817 51.345 148.817C54.3238 148.817 56.8571 147.746 58.945 145.604C61.0608 143.435 62.1187 140.556 62.1187 136.967C62.1187 134.603 61.2557 132.6 59.5297 130.958ZM49.0066 134.13C49.8974 132.628 50.997 131.876 52.3055 131.876C53.6417 131.876 54.63 132.461 55.2703 133.629C55.9106 134.742 56.2308 136.244 56.2308 138.135C56.2308 140.027 55.7714 141.71 54.8527 143.184C53.9619 144.659 52.8483 145.396 51.5121 145.396C50.1758 145.396 49.1736 144.867 48.5055 143.81C47.8652 142.753 47.545 141.418 47.545 139.804C47.6286 137.523 48.1157 135.632 49.0066 134.13Z" fill="#42A5F5"/>
<path fill-rule="evenodd" clip-rule="evenodd" d="M74.5013 132.127C75.6427 132.127 76.2134 132.739 76.2134 133.963C76.2134 134.241 76.1855 134.533 76.1299 134.839H76.2969C77.4383 134.839 78.357 134.547 79.0529 133.963C79.7554 133.369 80.1169 132.618 80.1377 131.71H83.1498L83.3168 131.793L82.0223 142.892C81.9667 143.254 81.9388 143.588 81.9388 143.894C81.9388 145.257 82.3564 146.425 83.1916 147.399C84.0267 148.344 85.3491 148.817 87.1586 148.817C88.9681 148.817 90.5132 148.261 91.7938 147.148C93.1022 146.036 93.7564 144.214 93.7564 141.682C93.7564 138.455 92.1278 135.479 88.8707 132.753L88.996 131.71H95.552V128.497H89.4136C90.1652 122.683 90.541 119.692 90.541 119.525C90.541 117.717 89.4831 116.813 87.3674 116.813C86.393 116.813 85.6136 116.925 85.0289 117.147L83.6927 128.497H80.1015C79.8886 129.016 79.7662 129.546 79.7342 130.086C79.5706 129.821 79.3575 129.583 79.0947 129.373C78.3987 128.789 77.4244 128.497 76.1716 128.497C74.4456 128.497 73.0258 129.15 71.9123 130.458V130.374C71.9123 129.123 71.0632 128.497 69.365 128.497C68.335 128.497 67.3189 128.65 66.3167 128.956L64.8551 141.682C64.8273 141.933 64.8134 142.322 64.8134 142.85C64.8134 144.575 65.231 146.008 66.0661 147.148C66.9013 148.261 68.2236 148.817 70.0332 148.817C71.8427 148.817 73.346 148.261 74.5431 147.148C75.7401 146.036 76.3387 144.408 76.3387 142.266C76.3387 139.318 74.8354 136.661 71.8288 134.297C72.4969 132.85 73.3877 132.127 74.5013 132.127ZM71.1189 137.217C72.7892 138.831 73.6244 140.444 73.6244 142.058C73.6244 144.033 73.0119 145.02 71.787 145.02C70.8405 145.02 70.3672 144.436 70.3672 143.268C70.3672 143.24 70.6178 141.223 71.1189 137.217ZM88.4531 135.966C90.1235 137.829 90.9586 139.721 90.9586 141.64C90.9586 142.809 90.7637 143.671 90.374 144.227C89.9843 144.756 89.4971 145.02 88.9125 145.02C88.1051 145.02 87.7015 144.394 87.7015 143.143C87.7015 142.503 87.952 140.11 88.4531 135.966Z" fill="#42A5F5"/>
<path fill-rule="evenodd" clip-rule="evenodd" d="M107.067 137.134C106.232 138.163 104.951 138.859 103.225 139.22L103.81 141.682C106.788 141.154 109.127 140.222 110.825 138.886C112.551 137.551 113.414 135.813 113.414 133.671C113.386 132.085 112.704 130.833 111.368 129.915C110.032 128.97 108.292 128.497 106.148 128.497C103.142 128.497 100.553 129.568 98.3811 131.71C96.2375 133.852 95.1658 136.355 95.1658 139.22C95.1658 142.086 96.0288 144.436 97.7548 146.272C99.3694 147.969 101.569 148.817 104.353 148.817C106.051 148.817 107.693 148.511 109.28 147.899C110.895 147.287 112.287 146.495 113.456 145.521C114.138 144.937 114.759 144.35 115.32 143.758C115.703 144.81 116.29 145.731 117.081 146.522C118.64 148.052 120.547 148.817 122.802 148.817C125.057 148.817 126.908 147.913 128.356 146.105C129.191 147.885 130.848 148.776 133.325 148.776C134.188 148.776 135.107 148.539 136.081 148.066C138.225 147.093 139.798 144.951 140.8 141.64C140.494 140.75 139.951 139.93 139.171 139.179C138.531 141.237 137.821 142.725 137.042 143.643C136.262 144.533 135.511 144.979 134.787 144.979C133.952 144.979 133.534 144.492 133.534 143.518C133.534 142.517 134.174 137.162 135.455 127.453C136.067 122.808 136.513 119.4 136.791 117.231C136.318 116.952 135.594 116.813 134.62 116.813C133.673 116.813 132.852 116.98 132.156 117.314C131.488 117.62 131.056 118.009 130.862 118.482L129.609 128.997C128.607 128.664 127.535 128.497 126.393 128.497H126.143C122.858 128.497 120.144 129.582 118 131.751C115.917 133.859 114.847 136.663 114.787 140.162C113.962 141.202 113.031 142.112 111.994 142.892C110.073 144.339 108.069 145.062 105.981 145.062C104.561 145.062 103.364 144.575 102.39 143.602C101.443 142.6 100.97 141.098 100.97 139.095C100.97 137.064 101.457 135.326 102.432 133.879C103.434 132.405 104.589 131.668 105.898 131.668C106.51 131.668 107.067 131.849 107.568 132.21C108.097 132.544 108.361 133.198 108.361 134.171C108.361 135.117 107.93 136.105 107.067 137.134ZM122.51 133.796C123.568 132.433 124.988 131.751 126.769 131.751C127.465 131.751 128.273 131.932 129.191 132.294L128.106 141.265C127.215 143.741 125.892 144.979 124.138 144.979C123.108 144.979 122.259 144.575 121.591 143.768C120.951 142.962 120.631 141.877 120.631 140.514C120.631 140.291 120.645 140.055 120.673 139.804C120.867 137.134 121.48 135.131 122.51 133.796Z" fill="#42A5F5"/>
</svg>
