<svg width="40" height="40" viewBox="0 0 40 40" fill="none" xmlns="http://www.w3.org/2000/svg">
<path d="M3.33333 10H0V18.3334H0.0166667L0 33.3334C0 35.1667 1.5 36.6667 3.33333 36.6667H33.3333V33.3334H3.33333V10ZM36.6667 6.66671H23.3333L20 3.33337H10C8.16667 3.33337 6.68333 4.83337 6.68333 6.66671L6.66667 26.6667C6.66667 28.5 8.16667 30 10 30H36.6667C38.5 30 40 28.5 40 26.6667V10C40 8.16671 38.5 6.66671 36.6667 6.66671ZM11.6667 25L19.1667 15L25 22.5167L29.1667 17.5L35 25H11.6667Z" fill="black"/>
</svg>
