<svg width="40" height="40" viewBox="0 0 40 40" fill="none" xmlns="http://www.w3.org/2000/svg">
<path d="M27.5 20C29.8 20 31.65 18.1334 31.65 15.8334C31.65 13.5334 29.8 11.6667 27.5 11.6667C25.2 11.6667 23.3333 13.5334 23.3333 15.8334C23.3333 18.1334 25.2 20 27.5 20ZM15 18.3334C17.7666 18.3334 19.9833 16.1 19.9833 13.3334C19.9833 10.5667 17.7666 8.33337 15 8.33337C12.2333 8.33337 9.99998 10.5667 9.99998 13.3334C9.99998 16.1 12.2333 18.3334 15 18.3334ZM27.5 23.3334C24.45 23.3334 18.3333 24.8667 18.3333 27.9167V31.6667H36.6666V27.9167C36.6666 24.8667 30.55 23.3334 27.5 23.3334ZM15 21.6667C11.1166 21.6667 3.33331 23.6167 3.33331 27.5V31.6667H15V27.9167C15 26.5 15.55 24.0167 18.95 22.1334C17.5 21.8334 16.1 21.6667 15 21.6667Z" fill="black"/>
</svg>
