<svg width="40" height="39" viewBox="0 0 40 39" fill="none" xmlns="http://www.w3.org/2000/svg">
<g clip-path="url(#clip0_243_847)">
<g clip-path="url(#clip1_243_847)">
<path d="M39.6862 15.9121C39.8895 17.0067 40.0081 18.134 39.9996 19.2857C39.9996 19.735 39.9657 20.1679 39.9318 20.609C35.6964 24.7504 29.8176 27.3235 23.3289 27.3235H16.6623C12.1557 27.3235 8.16595 29.4963 5.75174 32.8127C4.95548 32.0285 4.21851 31.1708 3.56625 30.2641C6.62424 26.5148 11.351 24.1051 16.6707 24.1051H23.3373C30.0971 24.1051 36.0606 20.8622 39.6862 15.9121ZM16.6707 20.8949C10.775 20.8949 5.48914 23.3699 1.82124 27.2826C1.31299 26.2044 0.906386 25.0771 0.601434 23.9009C4.79453 20.0535 10.4446 17.6765 16.6707 17.6765H23.3373C29.5296 17.6765 34.7392 13.5678 36.23 8.03775C37.0771 9.17317 37.8141 10.3903 38.3901 11.689C35.7133 17.1292 29.987 20.8949 23.3373 20.8949H16.6707ZM16.6707 11.248L23.3373 11.2316C27.0137 11.2316 30.0039 8.34815 30.0039 4.80305V2.5894C31.1983 3.25921 32.3165 4.04338 33.333 4.92557C33.2652 10.1942 28.8095 14.4582 23.3373 14.4582H16.6707C10.3769 14.4582 4.60817 16.5819 0.0423545 20.1025C0.0338836 19.833 0 19.5634 0 19.2857C0 18.1421 0.127063 17.0394 0.321894 15.953C5.03171 12.9878 10.6395 11.248 16.6707 11.248V11.248ZM16.6707 8.02958C11.2917 8.02958 6.22611 9.29569 1.71959 11.493C4.82841 4.72953 11.8423 0 20.0083 0C22.3462 0 24.5826 0.408422 26.6749 1.11908V4.81122C26.6749 6.58377 25.1755 8.02958 23.3373 8.02958H16.6707ZM23.3458 30.5337C29.1314 30.5337 34.4766 28.7284 38.8645 25.6898C36.1199 33.1884 28.7333 38.5714 20.0167 38.5714C15.6458 38.5714 11.6136 37.1991 8.31842 34.9038C10.1058 32.2735 13.1807 30.5337 16.6792 30.5337H23.3458Z" fill="url(#paint0_linear_243_847)"/>
<g clip-path="url(#clip2_243_847)">
<g clip-path="url(#clip3_243_847)">
<path d="M39.6862 16.1137C39.8895 17.2221 40.0081 18.3637 39.9996 19.53C39.9996 19.985 39.9657 20.4234 39.9318 20.8701C35.6964 25.0639 29.8176 27.6696 23.3289 27.6696H16.6623C12.1557 27.6696 8.16595 29.8699 5.75174 33.2283C4.95548 32.4342 4.21851 31.5657 3.56625 30.6475C6.62424 26.8507 11.351 24.4104 16.6707 24.4104H23.3373C30.0971 24.4104 36.0606 21.1265 39.6862 16.1137ZM16.6707 21.1596C10.775 21.1596 5.48914 23.666 1.82124 27.6282C1.31299 26.5363 0.906386 25.3948 0.601434 24.2036C4.79453 20.3076 10.4446 17.9004 16.6707 17.9004H23.3373C29.5296 17.9004 34.7392 13.7397 36.23 8.13957C37.0771 9.28937 37.8141 10.5219 38.3901 11.8371C35.7133 17.3462 29.987 21.1596 23.3373 21.1596H16.6707ZM16.6707 11.3904L23.3373 11.3739C27.0137 11.3739 30.0039 8.45391 30.0039 4.86389V2.6222C31.1983 3.3005 32.3165 4.0946 33.333 4.98797C33.2652 10.3234 28.8095 14.6413 23.3373 14.6413H16.6707C10.3769 14.6413 4.60817 16.792 0.0423545 20.3572C0.0338836 20.0842 0 19.8113 0 19.53C0 18.3719 0.127064 17.2552 0.321894 16.1551C5.03172 13.1524 10.6395 11.3904 16.6707 11.3904V11.3904ZM16.6707 8.1313C11.2917 8.1313 6.22611 9.41345 1.71959 11.6386C4.82841 4.78944 11.8423 0 20.0083 0C22.3462 0 24.5826 0.413596 26.6749 1.13325V4.87216C26.6749 6.66717 25.1755 8.1313 23.3373 8.1313H16.6707ZM23.3458 30.9205C29.1314 30.9205 34.4766 29.0924 38.8645 26.0152C36.1199 33.6088 28.7333 39.06 20.0167 39.06C15.6458 39.06 11.6136 37.6703 8.31842 35.3459C10.1058 32.6824 13.1807 30.9205 16.6792 30.9205H23.3458Z" fill="white"/>
</g>
</g>
</g>
</g>
<defs>
<linearGradient id="paint0_linear_243_847" x1="20" y1="0" x2="20" y2="38.5714" gradientUnits="userSpaceOnUse">
<stop stop-color="#0077C2"/>
<stop offset="1" stop-color="#80D6FF"/>
</linearGradient>
<clipPath id="clip0_243_847">
<rect width="40" height="38.5714" fill="white"/>
</clipPath>
<clipPath id="clip1_243_847">
<rect width="40.6603" height="39.2086" fill="white" transform="translate(-0.143982 -0.359375)"/>
</clipPath>
<clipPath id="clip2_243_847">
<rect width="40" height="39.0601" fill="white"/>
</clipPath>
<clipPath id="clip3_243_847">
<rect width="40.6603" height="39.7052" fill="white" transform="translate(-0.143982 -0.364014)"/>
</clipPath>
</defs>
</svg>
