<svg width="126" height="40" viewBox="0 0 126 40" fill="none" xmlns="http://www.w3.org/2000/svg">
<path d="M14.2931 10.352C15.0331 9.242 15.4031 8.206 15.4031 7.244C15.4031 6.282 15.1318 5.51733 14.5891 4.95C14.0465 4.38267 13.3311 4.099 12.4431 4.099C11.5551 4.099 10.8398 4.321 10.2971 4.765C9.75448 5.18433 9.48315 5.86267 9.48315 6.8C9.48315 7.71267 10.1245 9.36533 11.4071 11.758C12.6898 14.1507 13.5038 15.6923 13.8491 16.383C14.7865 18.2577 15.2551 20.0707 15.2551 21.822C15.2551 24.0173 14.4535 25.8057 12.8501 27.187C11.2715 28.5437 9.39682 29.222 7.22615 29.222C5.08015 29.222 3.39048 28.556 2.15715 27.224C0.923815 25.8673 0.307149 24.2887 0.307149 22.488C0.307149 19.158 2.36682 16.4077 6.48615 14.237C4.80882 10.9317 3.97015 8.62533 3.97015 7.318C3.97015 5.49267 4.69782 3.951 6.15315 2.693C7.63315 1.41033 9.43382 0.769 11.5551 0.769C13.7011 0.769 15.3415 1.31167 16.4761 2.397C17.6108 3.48233 18.1781 4.86367 18.1781 6.541C18.1781 7.651 17.8081 8.92133 17.0681 10.352H14.2931ZM4.59915 24.782C5.26515 25.4973 6.06682 25.855 7.00415 25.855C7.96615 25.855 8.70615 25.5837 9.22415 25.041C9.76682 24.4737 10.0381 23.6473 10.0381 22.562C10.0381 21.5753 9.65582 20.3667 8.89115 18.936C8.79248 18.7387 8.60748 18.381 8.33615 17.863C8.06482 17.3203 7.86748 16.938 7.74415 16.716C4.98148 18.1467 3.60015 19.9473 3.60015 22.118C3.60015 23.228 3.93315 24.116 4.59915 24.782ZM22.1846 11.166C23.7879 11.166 24.7252 11.573 24.9966 12.387C26.1559 11.573 27.6236 11.166 29.3996 11.166C31.1756 11.166 32.7049 11.8937 33.9876 13.349C35.2702 14.8043 35.9116 16.5063 35.9116 18.455C35.9116 18.7263 35.8992 19.01 35.8746 19.306C35.6032 22.5373 34.5179 25.004 32.6186 26.706C30.7192 28.3833 28.2402 29.222 25.1816 29.222C24.4909 29.222 23.7386 29.1357 22.9246 28.963L21.7406 39.138H16.8936C18.4722 25.5467 19.5329 16.3213 20.0756 11.462C20.5936 11.2647 21.2966 11.166 22.1846 11.166ZM30.6946 18.714C30.6946 17.6287 30.4479 16.6667 29.9546 15.828C29.4612 14.9893 28.6966 14.57 27.6606 14.57C26.2546 14.57 25.1816 15.4827 24.4416 17.308C23.9482 20.9587 23.6646 23.08 23.5906 23.672C23.5659 24.412 23.8002 24.967 24.2936 25.337C24.7869 25.707 25.3912 25.892 26.1066 25.892C27.3646 25.892 28.4006 25.3247 29.2146 24.19C30.2012 22.784 30.6946 20.9587 30.6946 18.714ZM47.3925 11.203C49.6619 11.203 51.5489 11.9307 53.0535 13.386C54.5829 14.8413 55.3475 16.6173 55.3475 18.714C55.3475 21.896 54.4102 24.449 52.5355 26.373C50.6855 28.2723 48.4409 29.222 45.8015 29.222C43.1622 29.222 41.0655 28.4697 39.5115 26.965C37.9822 25.4603 37.2175 23.598 37.2175 21.378C37.2175 18.27 38.1672 15.8033 40.0665 13.978C41.9905 12.128 44.4325 11.203 47.3925 11.203ZM46.6525 14.2C45.4932 14.2 44.5189 14.866 43.7295 16.198C42.9402 17.53 42.5085 19.2073 42.4345 21.23C42.4345 22.6607 42.7182 23.8447 43.2855 24.782C43.8775 25.7193 44.7655 26.188 45.9495 26.188C47.1335 26.188 48.1202 25.5343 48.9095 24.227C49.7235 22.9197 50.1305 21.4273 50.1305 19.75C50.1305 18.0727 49.8469 16.7407 49.2795 15.754C48.7122 14.718 47.8365 14.2 46.6525 14.2ZM67.8362 16.05C67.8362 14.9647 67.3305 14.422 66.3192 14.422C65.3325 14.422 64.5432 15.0633 63.9512 16.346C66.6152 18.4427 67.9472 20.7983 67.9472 23.413C67.9472 25.3123 67.4169 26.7553 66.3562 27.742C65.2955 28.7287 63.9635 29.222 62.3602 29.222C60.7569 29.222 59.5852 28.7287 58.8452 27.742C58.1052 26.7307 57.7352 25.4603 57.7352 23.931C57.7352 23.4623 57.7475 23.117 57.7722 22.895L59.0672 11.61C59.9552 11.3387 60.8555 11.203 61.7682 11.203C63.2729 11.203 64.0252 11.758 64.0252 12.868V12.942C65.0119 11.7827 66.2699 11.203 67.7992 11.203C68.9092 11.203 69.7725 11.462 70.3892 11.98C71.0059 12.4733 71.3142 13.1393 71.3142 13.978C71.3142 14.8167 70.9935 15.5073 70.3522 16.05C69.7355 16.568 68.9215 16.827 67.9102 16.827C67.8609 16.827 67.8115 16.827 67.7622 16.827C67.8115 16.5557 67.8362 16.2967 67.8362 16.05ZM65.5422 23.228C65.5422 21.7973 64.8022 20.3667 63.3222 18.936C62.8782 22.488 62.6562 24.2763 62.6562 24.301C62.6562 25.337 63.0755 25.855 63.9142 25.855C64.9995 25.855 65.5422 24.9793 65.5422 23.228ZM80.5312 3.248C80.5312 3.396 80.1982 6.04766 79.5322 11.203H84.9712V14.052H79.1622L79.0512 14.977C81.9372 17.3943 83.3802 20.0337 83.3802 22.895C83.3802 25.1397 82.8006 26.7553 81.6412 27.742C80.5066 28.7287 79.1376 29.222 77.5342 29.222C75.9309 29.222 74.7592 28.8027 74.0192 27.964C73.2792 27.1007 72.9092 26.0647 72.9092 24.856C72.9092 24.5847 72.9339 24.2887 72.9832 23.968L74.1302 14.126L73.9822 14.052H70.9852C70.9606 13.8053 70.9482 13.4107 70.9482 12.868C70.9482 12.3007 71.0592 11.7457 71.2812 11.203H74.4632L75.6472 1.139C76.1652 0.941665 76.8559 0.842999 77.7192 0.842999C79.5939 0.842999 80.5312 1.64467 80.5312 3.248ZM80.9012 22.858C80.9012 21.156 80.1612 19.4787 78.6812 17.826C78.2372 21.5013 78.0152 23.6227 78.0152 24.19C78.0152 25.3 78.3729 25.855 79.0882 25.855C79.6062 25.855 80.0379 25.6207 80.3832 25.152C80.7286 24.6587 80.9012 23.894 80.9012 22.858ZM91.77 20.712C93.2993 20.3913 94.434 19.7747 95.174 18.862C95.9387 17.9493 96.321 17.0737 96.321 16.235C96.321 15.3717 96.0867 14.792 95.618 14.496C95.174 14.1753 94.6807 14.015 94.138 14.015C92.9787 14.015 91.955 14.6687 91.067 15.976C90.2037 17.2587 89.772 18.8003 89.772 20.601C89.772 22.377 90.1913 23.709 91.03 24.597C91.8933 25.4603 92.954 25.892 94.212 25.892C96.062 25.892 97.838 25.2507 99.54 23.968C101.242 22.6853 102.623 21.008 103.684 18.936C104.227 19.454 104.72 20.0953 105.164 20.86C104.35 22.71 102.907 24.523 100.835 26.299C99.799 27.1623 98.5657 27.8653 97.135 28.408C95.729 28.9507 94.2737 29.222 92.769 29.222C90.3023 29.222 88.3537 28.4697 86.923 26.965C85.3937 25.337 84.629 23.2527 84.629 20.712C84.629 18.1713 85.5787 15.9513 87.478 14.052C89.402 12.1527 91.696 11.203 94.36 11.203C96.2593 11.203 97.801 11.6223 98.985 12.461C100.169 13.275 100.773 14.385 100.798 15.791C100.798 17.6903 100.033 19.232 98.504 20.416C96.9993 21.6 94.9273 22.4263 92.288 22.895L91.77 20.712ZM116.257 2.323C116.43 1.90367 116.812 1.55833 117.404 1.287C118.021 0.990999 118.749 0.842999 119.587 0.842999C120.451 0.842999 121.092 0.966332 121.511 1.213C121.265 3.137 120.87 6.15867 120.327 10.278C119.193 18.8867 118.625 23.635 118.625 24.523C118.625 25.3863 118.995 25.818 119.735 25.818C120.377 25.818 121.043 25.4233 121.733 24.634C122.424 23.82 123.053 22.5003 123.62 20.675C124.311 21.341 124.792 22.0687 125.063 22.858C124.175 25.7933 122.782 27.6927 120.882 28.556C120.019 28.9753 119.205 29.185 118.44 29.185C116.245 29.185 114.777 28.3957 114.037 26.817C112.755 28.4203 111.114 29.222 109.116 29.222C107.118 29.222 105.429 28.5437 104.047 27.187C102.691 25.8303 102.012 24.042 102.012 21.822C102.012 18.5907 102.962 16.013 104.861 14.089C106.761 12.165 109.166 11.203 112.076 11.203C112.15 11.203 112.224 11.203 112.298 11.203C113.31 11.203 114.259 11.351 115.147 11.647L116.257 2.323ZM112.631 14.089C111.053 14.089 109.795 14.6933 108.857 15.902C107.945 17.086 107.402 18.862 107.229 21.23C107.205 21.452 107.192 21.6617 107.192 21.859C107.192 23.0677 107.476 24.0297 108.043 24.745C108.635 25.4603 109.388 25.818 110.3 25.818C111.854 25.818 113.026 24.7203 113.815 22.525L114.777 14.57C113.963 14.2493 113.248 14.089 112.631 14.089Z" fill="white"/>
</svg>
